<mxfile host="app.diagrams.net" modified="2022-03-03T11:19:29.890Z" agent="5.0 (Windows NT 10.0; Win64; x64) AppleWebKit/537.36 (KHTML, like Gecko) Chrome/98.0.4758.102 Safari/537.36 Edg/98.0.1108.56" etag="R1SX9u1sBoaO6MeYjd7F" version="16.6.5" type="github">
  <diagram id="lvTKojmqsVSIfZKhd320" name="Page-1">
    <mxGraphModel dx="782" dy="514" grid="1" gridSize="10" guides="1" tooltips="1" connect="1" arrows="1" fold="1" page="1" pageScale="1" pageWidth="827" pageHeight="1169" math="0" shadow="0">
      <root>
        <mxCell id="0" />
        <mxCell id="1" parent="0" />
        <mxCell id="3xhup7_EW3yS686gQ0pf-1" value="启动类加载器&lt;br&gt;Bootstrap ClassLoader" style="rounded=0;whiteSpace=wrap;html=1;" vertex="1" parent="1">
          <mxGeometry x="300" y="90" width="200" height="70" as="geometry" />
        </mxCell>
        <mxCell id="3xhup7_EW3yS686gQ0pf-9" style="edgeStyle=none;rounded=0;orthogonalLoop=1;jettySize=auto;html=1;exitX=0.5;exitY=0;exitDx=0;exitDy=0;entryX=0.5;entryY=1;entryDx=0;entryDy=0;" edge="1" parent="1" source="3xhup7_EW3yS686gQ0pf-2" target="3xhup7_EW3yS686gQ0pf-1">
          <mxGeometry relative="1" as="geometry" />
        </mxCell>
        <mxCell id="3xhup7_EW3yS686gQ0pf-2" value="扩展类加载器&lt;br&gt;Extenson ClassLoader" style="rounded=0;whiteSpace=wrap;html=1;" vertex="1" parent="1">
          <mxGeometry x="300" y="200" width="200" height="70" as="geometry" />
        </mxCell>
        <mxCell id="3xhup7_EW3yS686gQ0pf-8" style="edgeStyle=none;rounded=0;orthogonalLoop=1;jettySize=auto;html=1;exitX=0.5;exitY=0;exitDx=0;exitDy=0;entryX=0.5;entryY=1;entryDx=0;entryDy=0;" edge="1" parent="1" source="3xhup7_EW3yS686gQ0pf-3" target="3xhup7_EW3yS686gQ0pf-2">
          <mxGeometry relative="1" as="geometry" />
        </mxCell>
        <mxCell id="3xhup7_EW3yS686gQ0pf-3" value="应用程序类加载器&lt;br&gt;Application ClassLoader" style="rounded=0;whiteSpace=wrap;html=1;" vertex="1" parent="1">
          <mxGeometry x="245" y="330" width="310" height="100" as="geometry" />
        </mxCell>
        <mxCell id="3xhup7_EW3yS686gQ0pf-6" style="rounded=0;orthogonalLoop=1;jettySize=auto;html=1;entryX=0.5;entryY=1;entryDx=0;entryDy=0;" edge="1" parent="1" source="3xhup7_EW3yS686gQ0pf-4" target="3xhup7_EW3yS686gQ0pf-3">
          <mxGeometry relative="1" as="geometry" />
        </mxCell>
        <mxCell id="3xhup7_EW3yS686gQ0pf-4" value="自定义类加载器&lt;br&gt;Custom ClassLoader" style="rounded=0;whiteSpace=wrap;html=1;" vertex="1" parent="1">
          <mxGeometry x="160" y="460" width="200" height="70" as="geometry" />
        </mxCell>
        <mxCell id="3xhup7_EW3yS686gQ0pf-7" style="edgeStyle=none;rounded=0;orthogonalLoop=1;jettySize=auto;html=1;entryX=0.5;entryY=1;entryDx=0;entryDy=0;" edge="1" parent="1" source="3xhup7_EW3yS686gQ0pf-5" target="3xhup7_EW3yS686gQ0pf-3">
          <mxGeometry relative="1" as="geometry" />
        </mxCell>
        <mxCell id="3xhup7_EW3yS686gQ0pf-5" value="自定义类加载器&lt;br&gt;Custom ClassLoader" style="rounded=0;whiteSpace=wrap;html=1;" vertex="1" parent="1">
          <mxGeometry x="490" y="460" width="200" height="70" as="geometry" />
        </mxCell>
        <mxCell id="3xhup7_EW3yS686gQ0pf-10" value="/lib/rt.jar" style="text;html=1;strokeColor=none;fillColor=none;align=center;verticalAlign=middle;whiteSpace=wrap;rounded=0;" vertex="1" parent="1">
          <mxGeometry x="530" y="110" width="60" height="30" as="geometry" />
        </mxCell>
        <mxCell id="3xhup7_EW3yS686gQ0pf-11" value="/lib/ext&lt;br&gt;Java.ext.dirs" style="text;html=1;strokeColor=none;fillColor=none;align=center;verticalAlign=middle;whiteSpace=wrap;rounded=0;" vertex="1" parent="1">
          <mxGeometry x="540" y="210" width="60" height="30" as="geometry" />
        </mxCell>
        <mxCell id="3xhup7_EW3yS686gQ0pf-12" value="&lt;font style=&quot;font-size: 14px&quot;&gt;CLASSPATH&lt;br&gt;-classpath&lt;br&gt;-cp&amp;nbsp; &amp;nbsp; &amp;nbsp; &amp;nbsp; &amp;nbsp; &amp;nbsp;&lt;br&gt;Manifest&lt;br&gt;&lt;/font&gt;" style="text;html=1;strokeColor=none;fillColor=none;align=center;verticalAlign=middle;whiteSpace=wrap;rounded=0;" vertex="1" parent="1">
          <mxGeometry x="130" y="350" width="90" height="30" as="geometry" />
        </mxCell>
      </root>
    </mxGraphModel>
  </diagram>
</mxfile>
